# Blender 4.1.1
# www.blender.org
mtllib PediluveGround.mtl
o PediluveGround
v -32.767502 -32.767502 -0.299998
v -32.767502 32.767502 -0.300002
v 2.000000 32.767502 -0.300002
v 2.000000 -32.767502 -0.299998
v 2.000000 32.767502 0.000298
v 2.000000 -32.767502 0.000302
v -32.767502 32.767502 0.099998
v 0.000000 32.767502 0.099998
v 0.000000 32.767502 0.000298
v 0.000000 -32.767502 0.000302
v 0.000000 -32.767502 0.100002
v -32.767502 -32.767502 0.100002
vn -0.0000 -0.0000 -1.0000
vn 1.0000 -0.0000 -0.0000
vn -0.0000 1.0000 -0.0000
vn -0.0000 -1.0000 -0.0000
vn -1.0000 -0.0000 -0.0000
vn -0.0000 -0.0000 1.0000
vt 0.933235 0.505632
vt 0.933235 0.995191
vt 0.010441 0.505632
vt 0.010441 0.995191
vt 0.933235 0.009037
vt 0.010441 0.009037
vt 0.933235 0.004809
vt 0.010441 0.004809
vt 0.934639 0.010441
vt 0.938867 0.010441
vt 0.934639 0.038603
vt 0.938867 0.500000
vt 0.933235 0.500000
vt 0.933235 0.038603
vt 0.009038 0.010442
vt 0.009038 0.038603
vt 0.004809 0.010442
vt 0.004809 0.500000
vt 0.010441 0.500000
vt 0.010441 0.038603
vt 0.010441 0.037199
vt 0.933235 0.037199
s 0
usemtl Steel_-_Satin
f 2/1/1 3/2/1 1/3/1
f 1/3/1 3/2/1 4/4/1
f 5/5/2 6/6/2 3/7/2
f 3/7/2 6/6/2 4/8/2
f 5/9/3 3/10/3 9/11/3
f 9/11/3 3/10/3 2/12/3
f 9/11/3 2/12/3 7/13/3
f 7/13/3 8/14/3 9/11/3
f 6/15/4 10/16/4 4/17/4
f 4/17/4 10/16/4 1/18/4
f 1/18/4 10/16/4 12/19/4
f 12/19/4 10/16/4 11/20/4
f 10/21/2 9/22/2 11/20/2
f 11/20/2 9/22/2 8/14/2
f 12/19/5 7/13/5 1/3/5
f 1/3/5 7/13/5 2/1/5
f 8/14/6 7/13/6 11/20/6
f 11/20/6 7/13/6 12/19/6
f 5/5/6 9/22/6 6/6/6
f 6/6/6 9/22/6 10/21/6
